<svg version="1.1" id="Layer_1" xmlns="http://www.w3.org/2000/svg" xmlns:xlink="http://www.w3.org/1999/xlink" x="0px" y="0px"
	 width="100%" viewBox="0 0 248 222" enable-background="new 0 0 248 222" xml:space="preserve">
<path fill="#010303" opacity="1.000000" stroke="none" 
	d="
M1.000000,84.000000 
	C1.000000,56.000004 1.000000,28.500010 1.000000,1.000011 
	C83.666649,1.000007 166.333298,1.000007 248.999954,1.000004 
	C248.999969,74.999969 248.999969,148.999939 248.999985,222.999939 
	C166.333374,222.999954 83.666763,222.999954 1.000072,222.999969 
	C1.000000,176.833328 1.000000,130.666672 1.000000,84.000000 
M175.546494,61.901638 
	C175.707001,61.601250 175.867508,61.300861 176.483017,60.814560 
	C176.774139,60.616234 176.936920,60.341793 177.570160,59.776852 
	C178.087509,58.879581 178.604874,57.982307 179.014099,57.012554 
	C179.014099,57.012554 179.103653,57.107025 179.701447,56.757687 
	C182.481796,52.196354 184.935471,47.565884 182.901352,41.397945 
	C182.662308,40.915585 182.423264,40.433228 182.126663,39.242748 
	C180.472214,37.343456 178.817749,35.444164 176.967499,33.182926 
	C176.748489,32.985302 176.492996,32.907440 175.995621,32.429401 
	C175.660309,32.295059 175.324982,32.160717 174.999588,31.997990 
	C174.999588,31.997990 174.976196,32.017570 174.649429,31.417381 
	C160.023972,22.862017 144.379074,18.128397 127.298622,18.927013 
	C124.704521,19.048302 120.898773,18.067673 121.089767,22.461262 
	C121.286629,26.989912 125.067574,24.790102 127.279991,24.846464 
	C135.714005,25.061331 144.182953,24.600233 152.579926,25.207003 
	C155.636795,25.427893 158.528931,27.928503 161.794815,29.152222 
	C161.794815,29.152222 161.524338,29.420683 161.726120,30.167068 
	C164.279816,34.608944 162.418365,38.760624 160.974823,42.966427 
	C160.974823,42.966427 160.917618,42.892292 160.345123,43.208828 
	C159.188690,44.769592 158.032257,46.330360 156.951370,47.960651 
	C156.951370,47.960651 156.922714,47.862053 156.388779,47.998180 
	C156.211472,48.306225 156.034164,48.614269 155.931595,48.936638 
	C155.931595,48.936638 155.927933,48.860626 155.373627,48.963982 
	C155.192154,49.277267 155.010681,49.590553 154.911942,49.911331 
	C154.911942,49.911331 154.906174,49.828468 154.354980,49.951324 
	C154.155823,50.252235 153.956650,50.553146 153.867081,50.863277 
	C153.867081,50.863277 153.856049,50.753849 153.243011,50.901417 
	C152.471298,51.581181 151.699600,52.260944 150.982697,52.989948 
	C150.982697,52.989948 150.971237,52.917160 150.402542,52.961285 
	C150.182266,53.249771 149.961990,53.538254 149.847946,53.838043 
	C149.847946,53.838043 149.835663,53.731934 149.185379,53.898113 
	C147.774979,54.916225 146.364594,55.934338 144.991898,57.001472 
	C144.991898,57.001472 144.978165,56.941380 144.383118,56.969131 
	C143.908752,57.305149 143.434372,57.641167 142.990799,58.007969 
	C142.990799,58.007969 142.994141,57.964615 142.395493,57.937614 
	C141.923569,58.288597 141.451645,58.639576 140.996506,59.005009 
	C140.996506,59.005009 140.999496,58.984093 140.407501,58.950611 
	C139.942886,59.300423 139.478287,59.650234 138.999878,59.994377 
	C138.999878,59.994377 138.992783,60.007015 138.401779,59.973602 
	C137.925812,60.311710 137.449829,60.649818 136.992859,61.006744 
	C136.992859,61.006744 136.997559,60.981163 136.253052,60.927265 
	C133.840729,61.951694 131.428406,62.976124 129.000244,63.993534 
	C129.000244,63.993534 128.993912,64.009262 128.214050,64.030472 
	C125.019417,64.953522 121.867752,66.079727 118.623032,66.765923 
	C100.526978,70.592827 82.468063,73.193718 64.996941,63.990772 
	C64.996941,63.990772 65.061089,63.960251 64.939568,63.429119 
	C64.620193,63.294273 64.300827,63.159431 63.743889,62.603477 
	C63.543148,62.340588 63.290096,62.145588 62.923805,61.472054 
	C62.628956,61.284420 62.334106,61.096786 62.019054,60.980354 
	C62.019054,60.980354 62.085320,60.947392 61.907352,60.312954 
	C61.293514,59.178761 60.679676,58.044563 60.015064,56.960613 
	C60.015064,56.960613 60.085693,56.971264 60.147972,56.115700 
	C60.363922,53.139755 60.579876,50.163815 60.795830,47.187870 
	C60.438675,46.965813 60.081520,46.743755 59.724369,46.521698 
	C56.805576,50.336735 53.886784,54.151772 50.999912,57.997242 
	C50.999912,57.997242 50.964951,57.973358 50.405003,58.260406 
	C49.933598,59.171139 49.462189,60.081871 49.000000,61.000000 
	C49.000000,61.000000 48.990353,60.993546 48.413719,61.402721 
	C45.737446,66.597618 43.872078,71.841721 47.462688,77.464088 
	C47.462688,77.464088 47.485912,77.511353 47.676994,78.158707 
	C49.754196,80.143753 51.831394,82.128807 53.998230,84.010178 
	C53.998230,84.010178 53.895332,84.100327 54.117645,84.710625 
	C55.073608,85.153687 56.029568,85.596756 56.984249,85.991875 
	C56.984249,85.991875 56.951885,86.027351 57.430923,86.548409 
	C59.741547,87.449532 61.986275,88.613823 64.372902,89.211365 
	C90.302628,95.703400 115.398643,91.973923 140.591766,82.879509 
	C141.063141,82.597198 141.534500,82.314880 142.706192,82.083397 
	C144.132568,81.385193 145.558929,80.686989 146.999390,80.000916 
	C146.999390,80.000916 146.992020,79.985901 147.721909,79.975418 
	C150.196548,78.692528 152.671188,77.409637 155.071442,76.099503 
	C155.071442,76.099503 155.069748,76.178711 155.681763,76.126518 
	C156.143555,75.770119 156.605362,75.413712 157.014389,75.009132 
	C157.014389,75.009132 157.023773,75.079956 157.615067,75.051605 
	C158.077362,74.702087 158.539673,74.352562 159.000000,74.000000 
	C159.000000,74.000000 159.002884,74.002808 159.691940,73.995567 
	C161.509201,72.707756 163.326462,71.419952 165.032730,70.032555 
	C165.032730,70.032555 165.114441,70.157295 165.779480,70.045898 
	C167.468979,68.670822 169.158463,67.295746 170.922256,65.946922 
	C170.922256,65.946922 170.939957,65.870125 171.525925,65.799255 
	C172.016937,65.203285 172.507950,64.607315 173.002853,64.003052 
	C173.002853,64.003052 173.012131,64.000771 173.529800,63.909069 
	C173.696182,63.615963 173.862549,63.322857 174.000000,63.000000 
	C174.000000,63.000000 174.029465,63.029240 174.547348,62.919601 
	C174.705902,62.621357 174.864456,62.323112 175.000000,62.000153 
	C175.000000,62.000153 175.025543,62.022198 175.546494,61.901638 
M108.139366,36.323307 
	C107.884346,36.102718 107.629326,35.882126 107.104942,35.819168 
	C107.104942,35.819168 107.351799,35.628178 107.313095,35.173359 
	C107.177238,34.870148 106.945938,34.688492 106.592270,34.486691 
	C106.592270,34.486691 106.459305,34.430840 106.277313,33.895252 
	C105.886139,33.521908 105.494965,33.148563 104.985321,32.341763 
	C104.985321,32.341763 104.676811,32.015045 104.704926,31.561045 
	C104.560753,31.248636 104.316597,31.094751 103.810074,30.544205 
	C103.604950,29.815376 103.399818,29.086548 103.833893,28.175587 
	C104.854103,27.770256 105.874313,27.364925 107.592430,26.997612 
	C108.451172,26.726847 109.309914,26.456081 110.105301,26.067036 
	C110.105301,26.067036 110.116508,26.200745 110.854362,26.259577 
	C112.464760,26.615131 114.075150,26.970686 115.924103,27.053196 
	C115.924103,27.053196 115.707001,27.343481 116.008537,27.880484 
	C117.103394,28.248529 118.198250,28.616577 119.557610,29.073542 
	C119.314018,28.180437 119.149910,27.578711 119.085762,26.246561 
	C118.384689,24.801888 117.683617,23.357214 117.461403,21.380930 
	C118.114449,20.087694 118.767494,18.794458 119.420547,17.501223 
	C118.967979,17.168146 118.515411,16.835072 118.062843,16.501995 
	C116.977295,17.617865 115.891754,18.733734 114.895966,19.869637 
	C114.895966,19.869637 114.858681,19.785568 114.361649,20.008617 
	C114.228882,20.337521 114.096115,20.666424 113.508919,21.150196 
	C113.223351,21.335707 113.049385,21.595850 112.135277,22.015263 
	C109.880508,22.287521 107.587776,22.919640 105.386215,22.687437 
	C104.201035,22.562429 103.172112,20.955891 102.007233,20.030369 
	C102.007233,20.030369 102.053192,20.078634 102.554565,19.575396 
	C103.100510,17.754520 103.646461,15.933646 104.045937,14.084048 
	C104.045937,14.084048 104.176620,14.156161 104.649269,13.704234 
	C105.276215,12.052660 105.903160,10.401087 106.530113,8.749513 
	C106.239708,8.358928 105.949295,7.968343 105.658890,7.577758 
	C104.204697,8.251232 102.409836,8.597570 101.375732,9.674449 
	C99.803802,11.311386 98.759514,13.455011 97.372704,15.449986 
	C97.372704,15.449986 97.352676,15.584346 96.957321,15.997806 
	C96.611649,16.655403 96.265976,17.313000 95.989677,17.988420 
	C95.989677,17.988420 95.948112,17.930077 95.390411,18.193314 
	C95.180542,18.760778 94.970665,19.328243 94.875145,19.896227 
	C94.875145,19.896227 94.858467,19.783098 94.319565,19.963890 
	C94.179779,20.298889 94.039993,20.633886 93.973892,20.973202 
	C93.973892,20.973202 93.934814,20.910593 93.365326,21.197052 
	C92.838005,22.107132 92.310684,23.017212 91.300156,24.067324 
	C91.182678,24.186998 91.065201,24.306673 90.527702,24.394032 
	C90.231606,24.464527 90.020653,24.638395 89.940865,24.987730 
	C89.940865,24.987730 89.942223,24.902216 89.148010,24.817167 
	C86.325851,25.754549 83.503685,26.691931 80.681526,27.629314 
	C80.803673,28.476458 80.925827,29.323599 81.047974,30.170742 
	C85.022202,30.170742 88.996437,30.170742 92.956276,30.073967 
	C92.956276,30.073967 92.861259,30.097298 93.068680,30.672739 
	C93.714310,31.117727 94.359932,31.562714 95.000702,31.994610 
	C95.000702,31.994610 94.986580,31.997772 95.298775,32.486588 
	C95.787170,32.779053 96.275574,33.071522 96.778587,33.263374 
	C96.778587,33.263374 96.679298,33.285244 96.909607,33.792587 
	C97.253731,33.914478 97.597855,34.036369 97.936295,34.081585 
	C97.936295,34.081585 97.861214,34.098145 98.062523,34.647678 
	C98.561317,34.923538 99.060112,35.199398 99.716408,35.349918 
	C99.716408,35.349918 99.605293,35.517754 99.759468,35.978020 
	C99.968140,36.265175 100.249725,36.399624 100.908684,36.027493 
	C100.908684,36.027493 100.622536,36.395935 100.850288,36.925007 
	C101.178932,37.111343 101.507568,37.297676 102.021790,37.830875 
	C102.234467,38.004829 102.478157,38.089409 102.989357,38.625042 
	C103.488861,38.915562 103.988365,39.206081 104.557648,39.479958 
	C104.557648,39.479958 104.554123,39.551609 104.738747,40.044281 
	C105.178131,40.305698 105.617523,40.567116 106.205719,41.123158 
	C106.205719,41.123158 106.517860,41.230453 106.863907,41.822304 
	C108.484718,41.934994 110.105537,42.047684 112.764839,42.232578 
	C110.991455,40.133247 110.047066,39.015285 109.007782,37.975182 
	C109.007782,37.975182 109.118965,37.923347 109.044579,37.370895 
	C108.747993,37.176933 108.451408,36.982967 108.123924,36.879650 
	C108.123924,36.879650 108.213387,36.845470 108.139366,36.323307 
M206.447830,156.476410 
	C206.447830,156.476410 206.508286,156.488892 207.022568,156.266129 
	C207.347565,155.839767 207.672562,155.413406 207.997559,154.997559 
	C207.997559,154.997559 207.987213,154.997452 208.563339,154.834686 
	C209.042648,154.220825 209.521973,153.606964 209.998779,152.998779 
	C209.998779,152.998779 209.993088,153.001328 210.561035,152.826141 
	C210.836029,152.313644 211.111008,151.801163 211.292770,151.269501 
	C211.292770,151.269501 211.315857,151.361832 211.926849,151.076935 
	C214.045258,147.069580 216.163651,143.062225 218.511520,138.948288 
	C218.511520,138.948288 218.476517,138.697708 218.923157,138.070557 
	C219.848572,133.501434 220.773987,128.932327 221.699417,124.363205 
	C221.108994,124.230019 220.518585,124.096832 219.928177,123.963646 
	C219.593521,124.617325 219.258865,125.271004 219.008682,125.975983 
	C219.008682,125.975983 218.937897,125.905998 218.379333,126.211472 
	C217.894348,127.132973 217.409363,128.054474 216.991852,128.988983 
	C216.991852,128.988983 216.950974,128.933731 216.375381,129.195084 
	C215.831726,130.080444 215.288086,130.965805 214.853683,131.856110 
	C214.853683,131.856110 214.836853,131.748047 214.293610,131.919388 
	C214.086365,132.227234 213.879120,132.535065 213.079239,133.121429 
	C211.163788,134.960617 209.358032,136.932785 207.315506,138.617935 
	C191.456604,151.702118 172.817535,159.054932 153.238693,164.184326 
	C127.212692,171.002823 100.840912,173.897858 74.252594,167.973053 
	C67.355255,166.436096 60.927124,162.793549 53.762138,160.430527 
	C53.718250,160.655441 53.674362,160.880356 53.630486,161.105270 
	C53.838856,160.765915 54.047226,160.426559 53.512749,160.721573 
	C57.010872,174.013123 66.129715,181.052505 79.083176,184.110611 
	C99.845734,189.012360 120.637207,188.305603 141.392365,184.470108 
	C159.554199,181.113846 177.094376,175.807663 193.611404,165.920212 
	C194.439728,165.306549 195.268066,164.692886 196.030914,164.033081 
	C196.030914,164.033081 196.041946,164.112411 196.687271,164.064011 
	C197.496033,163.407623 198.304794,162.751221 199.039810,162.048965 
	C199.039810,162.048965 199.060394,162.133316 199.685287,162.035995 
	C200.458893,161.354263 201.232483,160.672531 201.996796,159.995255 
	C201.996796,159.995255 201.988403,160.001495 202.625275,159.920837 
	C203.543304,159.051208 204.461349,158.181595 205.226685,157.210327 
	C205.226685,157.210327 205.331680,157.360733 205.817963,157.276489 
	C206.135010,157.122833 206.340256,156.876175 206.447830,156.476410 
M40.006348,131.598755 
	C40.323669,131.761475 40.640991,131.924194 40.987045,132.006866 
	C40.987045,132.006866 40.928249,132.068314 41.149937,132.712616 
	C45.918617,135.343185 50.420994,138.768646 55.500820,140.470459 
	C81.200348,149.080154 107.299828,147.337952 133.413147,142.504715 
	C134.249756,142.349899 135.279556,141.646042 135.661148,140.909134 
	C137.091431,138.146957 135.203079,128.347794 133.000092,126.000305 
	C133.000092,126.000305 132.964127,126.031952 132.851074,125.405579 
	C131.920486,124.579552 130.989914,123.753525 130.003036,122.995300 
	C130.003036,122.995300 130.074814,122.944275 129.889160,122.279182 
	C127.768951,118.535446 124.753716,118.276566 120.700417,118.943291 
	C111.889198,120.392624 102.984619,121.659386 94.076347,122.052628 
	C76.165886,122.843246 58.622330,121.214180 43.052731,110.954796 
	C43.052731,110.954796 43.127941,110.942947 42.988628,110.389503 
	C42.668179,110.211021 42.347729,110.032547 41.887302,109.417892 
	C41.707188,109.137993 41.450874,108.990578 40.905102,108.356346 
	C40.305870,108.142128 39.706635,107.927910 39.092983,107.159317 
	C38.806580,106.736343 38.520176,106.313377 37.944798,105.186241 
	C37.466038,103.810890 36.987274,102.435539 36.374565,100.337936 
	C35.560448,100.449997 34.037220,100.545036 34.034065,100.676575 
	C33.885433,106.866631 33.868767,113.059860 33.778538,119.642151 
	C33.778538,119.642151 33.947182,119.998001 33.845982,120.712784 
	C34.226463,121.813957 34.606949,122.915131 35.059174,124.054161 
	C35.059174,124.054161 35.111935,123.992546 35.083839,124.448189 
	C35.146988,124.780792 35.339100,125.000763 35.707443,125.755135 
	C36.292156,126.630348 36.876873,127.505569 37.489826,128.455048 
	C37.489826,128.455048 37.556072,128.498917 37.735199,129.080261 
	C38.468410,129.740158 39.201626,130.400070 40.003727,131.017868 
	C40.003727,131.017868 39.928059,131.042145 40.006348,131.598755 
M168.589386,202.933395 
	C168.823593,202.677658 168.897858,202.381775 169.169876,201.420242 
	C171.512177,198.229736 173.854477,195.039230 175.615906,192.639954 
	C172.038177,191.525742 167.752731,190.173721 163.450333,188.878021 
	C163.016571,188.747375 162.480301,188.957123 161.694611,188.772507 
	C161.109756,189.097107 160.524887,189.421692 159.940018,189.746277 
	C160.600494,190.531372 161.260956,191.316452 161.961105,192.022919 
	C161.961105,192.022919 161.881683,192.060974 162.054169,192.570923 
	C162.354538,192.746384 162.654922,192.921860 162.982010,193.025955 
	C162.982010,193.025955 162.911942,193.055939 162.990509,193.856323 
	C160.526459,194.896210 158.062393,195.936111 155.523758,197.007477 
	C156.047089,198.378387 156.796341,200.341141 157.270798,201.584045 
	C159.581268,200.640442 161.449127,199.612534 163.433243,199.281509 
	C163.851273,199.211777 164.695816,201.698471 165.106018,203.627594 
	C165.112289,204.066391 165.118561,204.505203 164.930130,205.468369 
	C165.177429,205.931564 165.424744,206.394745 165.672058,206.857925 
	C166.514084,205.634109 167.356125,204.410294 167.993927,203.020813 
	C167.993927,203.020813 168.193222,203.194916 168.589386,202.933395 
M106.108437,199.989853 
	C103.897377,199.989853 101.686317,199.989853 98.505287,199.989853 
	C100.221397,201.047287 101.048714,201.794632 102.016449,202.107193 
	C104.553520,202.926636 107.151848,203.556427 110.331131,204.773361 
	C121.571198,206.967834 132.816345,206.992813 144.731918,204.895081 
	C145.159012,204.789093 145.586121,204.683105 146.773865,204.736984 
	C147.884933,204.523788 148.998444,204.322433 150.106689,204.095444 
	C155.886642,202.911499 156.149231,202.134171 151.684418,197.304092 
	C151.460495,197.358795 151.236557,197.413483 150.369980,197.311737 
	C147.243423,197.947647 144.116867,198.583572 140.242752,199.209122 
	C139.511963,199.357605 138.781158,199.506104 137.246033,199.442200 
	C134.764435,199.634827 132.284546,199.963882 129.800934,199.994644 
	C122.191010,200.088852 114.579659,200.068527 106.108437,199.989853 
M157.433914,98.050240 
	C157.814545,98.372925 158.179489,98.716568 158.578125,99.015236 
	C170.102448,107.649452 169.930588,107.331238 157.448135,114.109032 
	C151.277557,117.459564 145.862320,118.739990 139.340958,115.254807 
	C137.379395,114.206505 134.145950,115.538170 131.495148,115.779572 
	C131.251480,116.379379 131.007812,116.979187 130.764145,117.578987 
	C140.491455,122.108017 142.760834,129.985321 141.680374,140.049103 
	C144.528107,138.471100 147.589294,136.839966 148.114380,134.611298 
	C149.779633,127.543510 153.665710,123.349052 160.691360,121.814423 
	C162.457199,121.428696 164.127625,120.611664 165.847214,120.007950 
	C172.932816,117.520340 173.852753,118.265556 173.233978,126.013733 
	C172.551926,134.554184 171.857742,143.093643 171.157898,151.768799 
	C176.778214,150.776413 179.921173,148.181656 181.469681,142.749069 
	C184.059769,133.662338 187.855042,124.921165 190.498734,115.846832 
	C191.880081,111.105400 194.320923,108.222755 198.699875,106.146652 
	C204.045898,103.612038 209.637924,101.026955 211.721298,94.420990 
	C205.531586,91.838905 199.926910,94.104187 194.445786,96.383720 
	C190.581894,97.990662 187.200806,98.472702 183.097870,96.528633 
	C174.248337,92.335510 164.938416,89.108612 156.119370,84.858688 
	C151.032181,82.407166 146.857574,82.543343 142.220230,86.373276 
	C147.206848,90.188683 152.046494,93.891647 157.433914,98.050240 
z"/>
<path fill="#08F9F8" opacity="1.000000" stroke="none" 
	d="
M176.971344,59.991226 
	C176.936920,60.341793 176.774139,60.616234 176.026611,61.009163 
	C175.388657,61.476574 175.207092,61.749386 175.025543,62.022198 
	C175.025543,62.022198 175.000000,62.000153 174.786957,62.113865 
	C174.293884,62.427860 174.112411,62.695080 174.029465,63.029240 
	C174.029465,63.029240 174.000000,63.000000 173.785675,63.105915 
	C173.284470,63.403591 173.098068,63.666573 173.012131,64.000771 
	C173.012131,64.000771 173.002853,64.003052 172.694473,64.041153 
	C171.904053,64.676216 171.422012,65.273170 170.939972,65.870132 
	C170.939957,65.870125 170.922256,65.946922 170.528534,65.943207 
	C168.461349,67.345428 166.787903,68.751366 165.114441,70.157295 
	C165.114441,70.157295 165.032730,70.032555 164.719818,70.046761 
	C162.605576,71.374908 160.804230,72.688858 159.002884,74.002808 
	C159.002884,74.002808 159.000000,74.000000 158.700302,74.008400 
	C157.941666,74.371185 157.482727,74.725571 157.023773,75.079956 
	C157.023773,75.079956 157.014389,75.009132 156.731445,75.037865 
	C155.988922,75.437302 155.529327,75.808006 155.069748,76.178711 
	C155.069748,76.178711 155.071442,76.099503 154.716202,76.072739 
	C151.904648,77.359283 149.448334,78.672592 146.992020,79.985901 
	C146.992020,79.985901 146.999390,80.000916 146.625305,79.970413 
	C144.836105,80.637466 143.420990,81.335014 142.005875,82.032562 
	C141.534500,82.314880 141.063141,82.597198 140.031158,82.668182 
	C130.873642,84.418030 122.311623,86.551254 113.672211,88.302765 
	C98.127731,91.454170 82.545761,92.135216 66.981728,88.253265 
	C63.660023,87.424774 60.296268,86.764908 56.951885,86.027351 
	C56.951885,86.027351 56.984249,85.991875 56.906807,85.679169 
	C55.851353,84.944412 54.873344,84.522369 53.895332,84.100327 
	C53.895332,84.100327 53.998230,84.010178 53.934982,83.712486 
	C51.743122,81.446983 49.614517,79.479172 47.485912,77.511353 
	C47.485912,77.511353 47.462688,77.464088 47.592087,77.007202 
	C48.144444,71.364723 48.567398,66.179131 48.990353,60.993546 
	C48.990353,60.993546 49.000000,61.000000 49.284752,60.852852 
	C50.034653,59.794922 50.499802,58.884140 50.964951,57.973358 
	C50.964951,57.973358 50.999912,57.997242 51.325283,57.941151 
	C53.535244,56.174477 55.419838,54.463898 57.287300,52.768864 
	C58.288670,54.272640 59.187180,55.621952 60.085693,56.971264 
	C60.085693,56.971264 60.015064,56.960613 60.000679,57.311272 
	C60.685966,58.757084 61.385643,59.852238 62.085320,60.947392 
	C62.085320,60.947392 62.019054,60.980354 62.119251,61.180771 
	C62.474545,61.593616 62.729637,61.806046 62.984734,62.018471 
	C63.290096,62.145588 63.543148,62.340588 63.983719,63.030819 
	C64.441299,63.727982 64.720474,63.895344 65.061089,63.960251 
	C65.061089,63.960251 64.996941,63.990772 65.071884,64.314171 
	C71.929276,70.685936 80.524368,71.315170 88.848251,71.842545 
	C102.090889,72.681541 114.854553,69.357185 127.484222,65.748749 
	C128.102631,65.572060 128.495834,64.607140 128.993912,64.009262 
	C128.993912,64.009262 129.000244,63.993534 129.398865,64.026245 
	C132.197510,63.033028 134.597534,62.007095 136.997559,60.981163 
	C136.997559,60.981163 136.992859,61.006744 137.283264,61.000603 
	C138.046692,60.665314 138.519745,60.336166 138.992783,60.007019 
	C138.992783,60.007015 138.999878,59.994377 139.303314,59.994553 
	C140.070999,59.657852 140.535248,59.320972 140.999496,58.984093 
	C140.999496,58.984093 140.996506,59.005009 141.289276,58.995239 
	C142.052734,58.645180 142.523438,58.304893 142.994141,57.964611 
	C142.994141,57.964615 142.990799,58.007969 143.278015,57.989590 
	C144.036209,57.627934 144.507187,57.284653 144.978165,56.941376 
	C144.978165,56.941380 144.991898,57.001472 145.333221,57.003815 
	C147.061584,55.914753 148.448624,54.823345 149.835663,53.731934 
	C149.835663,53.731934 149.847946,53.838043 150.054474,53.765785 
	C150.497742,53.434734 150.734482,53.175945 150.971237,52.917160 
	C150.971237,52.917160 150.982697,52.989948 151.290802,52.959251 
	C152.351288,52.203651 153.103668,51.478752 153.856049,50.753853 
	C153.856049,50.753849 153.867081,50.863277 154.069916,50.772797 
	C154.483887,50.397701 154.695038,50.113087 154.906174,49.828468 
	C154.906174,49.828468 154.911942,49.911331 155.115936,49.807770 
	C155.522583,49.423016 155.725250,49.141819 155.927933,48.860626 
	C155.927933,48.860626 155.931595,48.936638 156.140656,48.831722 
	C156.540726,48.438557 156.731720,48.150307 156.922714,47.862053 
	C156.922714,47.862053 156.951370,47.960651 157.265991,47.907173 
	C158.692963,46.199894 159.805283,44.546093 160.917618,42.892292 
	C160.917618,42.892292 160.974823,42.966427 161.303467,42.879951 
	C165.089020,38.779194 165.035233,32.106590 161.524338,29.420683 
	C161.524338,29.420683 161.794815,29.152222 161.807129,28.976940 
	C163.827423,29.004887 165.895187,28.974850 167.828354,29.470135 
	C170.268356,30.095274 172.598602,31.148827 174.976196,32.017570 
	C174.976196,32.017570 174.999588,31.997990 175.133148,32.239361 
	C175.578125,32.636936 175.889572,32.793137 176.201004,32.949341 
	C176.492996,32.907440 176.748489,32.985302 177.058624,33.738441 
	C178.827896,36.179592 180.506042,38.065231 182.184204,39.950867 
	C182.423264,40.433228 182.662308,40.915585 182.653625,42.007195 
	C181.305145,47.446636 180.204407,52.276833 179.103668,57.107025 
	C179.103653,57.107025 179.014099,57.012554 178.727798,57.095627 
	C177.951447,58.116207 177.461380,59.053715 176.971344,59.991226 
z"/>
<path fill="#0AF7F7" opacity="1.000000" stroke="none" 
	d="
M218.476517,138.697708 
	C218.476517,138.697708 218.511520,138.948288 218.091400,139.177368 
	C215.552826,143.391571 213.434357,147.376709 211.315857,151.361847 
	C211.315857,151.361832 211.292770,151.269501 211.041718,151.354401 
	C210.524796,151.959976 210.258942,152.480652 209.993073,153.001328 
	C209.993088,153.001328 209.998779,152.998779 209.685425,153.037445 
	C208.910446,153.716568 208.448837,154.357010 207.987213,154.997452 
	C207.987213,154.997452 207.997559,154.997559 207.691589,155.031494 
	C207.093170,155.539917 206.800735,156.014404 206.508301,156.488892 
	C206.508286,156.488892 206.447830,156.476410 206.172531,156.498993 
	C205.708710,156.801285 205.520187,157.081009 205.331665,157.360733 
	C205.331680,157.360733 205.226685,157.210327 204.961609,157.283325 
	C203.793839,158.238052 202.891129,159.119781 201.988403,160.001495 
	C201.988403,160.001495 201.996796,159.995255 201.672607,160.004745 
	C200.585739,160.720596 199.823059,161.426956 199.060394,162.133316 
	C199.060394,162.133316 199.039810,162.048965 198.744400,162.069489 
	C197.646637,162.764130 196.844284,163.438263 196.041946,164.112411 
	C196.041946,164.112411 196.030914,164.033081 195.735443,164.046600 
	C194.619141,164.702713 193.798325,165.345306 192.977524,165.987900 
	C177.094376,175.807663 159.554199,181.113846 141.392365,184.470108 
	C120.637207,188.305603 99.845734,189.012360 79.083176,184.110611 
	C66.129715,181.052505 57.010872,174.013123 53.867935,160.453613 
	C54.223122,160.185638 54.283478,160.118134 54.283478,160.118134 
	C60.927124,162.793549 67.355255,166.436096 74.252594,167.973053 
	C100.840912,173.897858 127.212692,171.002823 153.238693,164.184326 
	C172.817535,159.054932 191.456604,151.702118 207.315506,138.617935 
	C209.358032,136.932785 211.163788,134.960617 213.651627,132.903595 
	C214.428299,132.373184 214.632584,132.060623 214.836853,131.748047 
	C214.836853,131.748047 214.853683,131.856110 215.118896,131.753662 
	C215.906387,130.745392 216.428680,129.839569 216.950974,128.933731 
	C216.950974,128.933731 216.991852,128.988983 217.258057,128.844513 
	C217.995468,127.768684 218.466675,126.837341 218.937897,125.905998 
	C218.937897,125.905998 219.008682,125.975983 219.228302,126.230011 
	C219.370575,128.193069 219.344971,129.906403 219.203354,131.610077 
	C219.006668,133.976410 218.722977,136.335510 218.476517,138.697708 
z"/>
<path fill="#02FEFE" opacity="1.000000" stroke="none" 
	d="
M35.660172,125.108101 
	C35.339100,125.000763 35.146988,124.780792 35.328201,123.914337 
	C35.105690,119.577141 34.638817,115.773796 34.180611,111.657715 
	C34.201057,110.928001 34.212833,110.511017 34.522812,109.940659 
	C35.958603,108.488319 37.096188,107.189362 38.233772,105.890404 
	C38.520176,106.313377 38.806580,106.736343 39.247429,107.719101 
	C39.974041,108.511131 40.546204,108.743385 41.118370,108.975632 
	C41.450874,108.990578 41.707188,109.137993 42.059395,109.889313 
	C42.530300,110.554810 42.829121,110.748878 43.127941,110.942947 
	C43.127941,110.942947 43.052731,110.954796 43.084999,111.270538 
	C45.682220,113.512787 47.980480,116.218407 50.866692,117.206352 
	C57.208420,119.377113 63.828938,120.756844 70.369133,122.319321 
	C82.794968,125.287895 95.259567,124.054565 107.798325,122.933037 
	C115.162476,122.274353 122.678078,117.838142 130.074814,122.944275 
	C130.074814,122.944275 130.003036,122.995300 130.016037,123.323059 
	C131.007401,124.444534 131.985764,125.238243 132.964127,126.031952 
	C132.964127,126.031952 133.000092,126.000305 133.032379,126.430199 
	C133.385361,130.137848 134.268707,133.496323 133.814392,136.662872 
	C133.544601,138.543198 131.386078,141.316849 129.699463,141.625229 
	C122.901619,142.868149 115.971588,143.680801 109.062843,143.952789 
	C99.771606,144.318558 90.379196,144.772583 81.171074,143.822922 
	C72.459946,142.924530 63.835430,140.604050 55.357811,138.244415 
	C50.361984,136.853867 45.726044,134.170334 40.928249,132.068314 
	C40.928249,132.068314 40.987045,132.006866 40.883778,131.801758 
	C40.496361,131.411819 40.212208,131.226974 39.928059,131.042145 
	C39.928059,131.042145 40.003727,131.017868 39.988525,130.671555 
	C39.167572,129.716461 38.361824,129.107697 37.556072,128.498917 
	C37.556072,128.498917 37.489826,128.455048 37.576675,128.069809 
	C36.995739,126.825745 36.327957,125.966927 35.660172,125.108101 
z"/>
<path fill="#0CF4F3" opacity="1.000000" stroke="none" 
	d="
M157.160034,97.822426 
	C152.046494,93.891647 147.206848,90.188683 142.220230,86.373276 
	C146.857574,82.543343 151.032181,82.407166 156.119370,84.858688 
	C164.938416,89.108612 174.248337,92.335510 183.097870,96.528633 
	C187.200806,98.472702 190.581894,97.990662 194.445786,96.383720 
	C199.926910,94.104187 205.531586,91.838905 211.721298,94.420990 
	C209.637924,101.026955 204.045898,103.612038 198.699875,106.146652 
	C194.320923,108.222755 191.880081,111.105400 190.498734,115.846832 
	C187.855042,124.921165 184.059769,133.662338 181.469681,142.749069 
	C179.921173,148.181656 176.778214,150.776413 171.157898,151.768799 
	C171.857742,143.093643 172.551926,134.554184 173.233978,126.013733 
	C173.852753,118.265556 172.932816,117.520340 165.847214,120.007950 
	C164.127625,120.611664 162.457199,121.428696 160.691360,121.814423 
	C153.665710,123.349052 149.779633,127.543510 148.114380,134.611298 
	C147.589294,136.839966 144.528107,138.471100 141.680374,140.049103 
	C142.760834,129.985321 140.491455,122.108017 130.764145,117.578987 
	C131.007812,116.979187 131.251480,116.379379 131.495148,115.779572 
	C134.145950,115.538170 137.379395,114.206505 139.340958,115.254807 
	C145.862320,118.739990 151.277557,117.459564 157.448135,114.109032 
	C169.930588,107.331238 170.102448,107.649452 158.578125,99.015236 
	C158.179489,98.716568 157.814545,98.372925 157.160034,97.822426 
z"/>
<path fill="#0DF5F5" opacity="1.000000" stroke="none" 
	d="
M112.987022,21.930622 
	C113.049385,21.595850 113.223351,21.335707 113.965485,20.939215 
	C114.567596,20.414011 114.713135,20.099791 114.858681,19.785568 
	C114.858681,19.785568 114.895966,19.869637 115.164688,19.947411 
	C115.949783,20.654305 116.466164,21.283424 116.982544,21.912544 
	C117.683617,23.357214 118.384689,24.801888 118.622147,26.619541 
	C117.341347,27.109510 116.524178,27.226498 115.707001,27.343483 
	C115.707001,27.343481 115.924103,27.053196 115.879059,26.842627 
	C115.765297,25.753410 115.696579,24.874762 115.592018,23.537886 
	C113.481125,24.564461 111.798813,25.382603 110.116508,26.200745 
	C110.116508,26.200745 110.105301,26.067036 109.749084,26.053175 
	C107.876701,26.264984 106.360535,26.490656 104.555367,26.829876 
	C103.909149,27.414860 103.551918,27.886290 103.194687,28.357719 
	C103.399818,29.086548 103.604950,29.815376 103.920746,31.030830 
	C104.155563,31.801332 104.370689,31.967196 104.676811,32.015045 
	C104.676811,32.015045 104.985321,32.341763 105.065224,32.868355 
	C105.583183,33.740250 106.021240,34.085545 106.459305,34.430840 
	C106.459305,34.430840 106.592270,34.486691 106.587601,34.802734 
	C106.714195,35.477055 106.970482,35.646854 107.351799,35.628178 
	C107.351799,35.628178 107.104942,35.819168 107.247963,36.012222 
	C107.665115,36.418674 107.939255,36.632072 108.213387,36.845470 
	C108.213387,36.845470 108.123924,36.879650 108.206436,37.090904 
	C108.565620,37.509220 108.842293,37.716286 109.118965,37.923347 
	C109.118965,37.923347 109.007782,37.975182 109.047501,38.272118 
	C108.230759,39.456188 107.374313,40.343323 106.517860,41.230453 
	C106.517860,41.230453 106.205719,41.123158 106.077332,40.694527 
	C105.484001,40.027802 105.019066,39.789707 104.554123,39.551609 
	C104.554123,39.551609 104.557648,39.479958 104.478569,39.173103 
	C103.850616,38.605705 103.301743,38.345165 102.752869,38.084625 
	C102.478157,38.089409 102.234467,38.004829 101.828049,37.378922 
	C101.297058,36.749954 100.959793,36.572945 100.622536,36.395935 
	C100.622536,36.395935 100.908684,36.027493 100.704391,35.954903 
	C100.201828,35.760792 99.903564,35.639271 99.605293,35.517754 
	C99.605293,35.517754 99.716408,35.349918 99.582230,35.109314 
	C98.919106,34.611855 98.390160,34.355000 97.861214,34.098145 
	C97.861214,34.098145 97.936295,34.081585 97.801834,33.882622 
	C97.338020,33.550850 97.008659,33.418045 96.679298,33.285244 
	C96.679298,33.285244 96.778587,33.263374 96.675491,33.019630 
	C96.043785,32.516514 95.515182,32.257141 94.986580,31.997772 
	C94.986580,31.997772 95.000702,31.994610 94.943573,31.682829 
	C94.211380,30.946465 93.536316,30.521881 92.861259,30.097298 
	C92.861259,30.097298 92.956276,30.073967 92.692978,29.825241 
	C89.852417,29.214844 87.275154,28.853170 83.571220,28.333391 
	C86.408234,26.805489 88.175224,25.853853 89.942223,24.902218 
	C89.942223,24.902216 89.940865,24.987730 90.128250,24.962570 
	C90.614021,24.875465 90.824715,24.705111 90.947731,24.426346 
	C91.065201,24.306673 91.182678,24.186998 91.855873,23.877834 
	C92.919327,22.762426 93.427071,21.836508 93.934814,20.910591 
	C93.934814,20.910593 93.973892,20.973202 94.171280,20.841484 
	C94.531929,20.400877 94.695198,20.091988 94.858467,19.783098 
	C94.858467,19.783098 94.875145,19.896227 95.089844,19.747898 
	C95.519073,19.043072 95.733589,18.486574 95.948112,17.930077 
	C95.948112,17.930077 95.989677,17.988420 96.240898,17.847282 
	C96.778969,16.998878 97.065826,16.291613 97.352676,15.584346 
	C97.352676,15.584346 97.372704,15.449986 97.774323,15.438399 
	C99.606697,13.554136 101.037453,11.681459 102.468208,9.808783 
	C102.869522,10.129983 103.270828,10.451183 103.672142,10.772384 
	C103.840302,11.900310 104.008461,13.028235 104.176620,14.156161 
	C104.176620,14.156161 104.045937,14.084048 103.812866,14.288742 
	C103.070923,16.355167 102.562057,18.216900 102.053192,20.078632 
	C102.053192,20.078634 102.007233,20.030369 101.790115,20.267281 
	C102.157494,21.597980 102.837822,23.673576 103.311066,23.627388 
	C106.560631,23.310230 109.766846,22.548935 112.987022,21.930622 
z"/>
<path fill="#1DE2E2" opacity="1.000000" stroke="none" 
	d="
M41.039093,132.390472 
	C45.726044,134.170334 50.361984,136.853867 55.357811,138.244415 
	C63.835430,140.604050 72.459946,142.924530 81.171074,143.822922 
	C90.379196,144.772583 99.771606,144.318558 109.062843,143.952789 
	C115.971588,143.680801 122.901619,142.868149 129.699463,141.625229 
	C131.386078,141.316849 133.544601,138.543198 133.814392,136.662872 
	C134.268707,133.496323 133.385361,130.137848 133.015747,126.447830 
	C135.203079,128.347794 137.091431,138.146957 135.661148,140.909134 
	C135.279556,141.646042 134.249756,142.349899 133.413147,142.504715 
	C107.299828,147.337952 81.200348,149.080154 55.500820,140.470459 
	C50.420994,138.768646 45.918617,135.343185 41.039093,132.390472 
z"/>
<path fill="#1CE5E5" opacity="1.000000" stroke="none" 
	d="
M174.812805,31.717476 
	C172.598602,31.148827 170.268356,30.095274 167.828354,29.470135 
	C165.895187,28.974850 163.827423,29.004887 161.657822,29.095333 
	C158.528931,27.928503 155.636795,25.427893 152.579926,25.207003 
	C144.182953,24.600233 135.714005,25.061331 127.279991,24.846464 
	C125.067574,24.790102 121.286629,26.989912 121.089767,22.461262 
	C120.898773,18.067673 124.704521,19.048302 127.298622,18.927013 
	C144.379074,18.128397 160.023972,22.862017 174.812805,31.717476 
z"/>
<path fill="#1DE2E2" opacity="1.000000" stroke="none" 
	d="
M129.981995,122.611725 
	C122.678078,117.838142 115.162476,122.274353 107.798325,122.933037 
	C95.259567,124.054565 82.794968,125.287895 70.369133,122.319321 
	C63.828938,120.756844 57.208420,119.377113 50.866692,117.206352 
	C47.980480,116.218407 45.682220,113.512787 43.095280,111.233887 
	C58.622330,121.214180 76.165886,122.843246 94.076347,122.052628 
	C102.984619,121.659386 111.889198,120.392624 120.700417,118.943291 
	C124.753716,118.276566 127.768951,118.535446 129.981995,122.611725 
z"/>
<path fill="#09FBFC" opacity="1.000000" stroke="none" 
	d="
M109.725769,204.261780 
	C107.151848,203.556427 104.553520,202.926636 102.016449,202.107193 
	C101.048714,201.794632 100.221397,201.047287 98.505287,199.989853 
	C101.686317,199.989853 103.897377,199.989853 106.873093,200.231689 
	C109.234535,200.860474 110.817101,201.501572 112.430511,201.591919 
	C121.047539,202.074509 129.769104,203.672607 138.050369,199.654587 
	C138.781158,199.506104 139.511963,199.357605 140.945007,199.392746 
	C144.769043,198.873642 147.890839,198.170914 151.012619,197.468185 
	C151.236557,197.413483 151.460495,197.358795 151.977386,197.773605 
	C153.283600,200.997253 152.382690,202.506821 149.439514,203.032089 
	C148.243591,203.245544 147.152176,204.044525 146.013214,204.577087 
	C145.586121,204.683105 145.159012,204.789093 144.053619,204.696014 
	C132.158798,204.418564 120.942284,204.340179 109.725769,204.261780 
z"/>
<path fill="#1CE5E5" opacity="1.000000" stroke="none" 
	d="
M57.191406,86.287880 
	C60.296268,86.764908 63.660023,87.424774 66.981728,88.253265 
	C82.545761,92.135216 98.127731,91.454170 113.672211,88.302765 
	C122.311623,86.551254 130.873642,84.418030 139.751099,82.658211 
	C115.398643,91.973923 90.302628,95.703400 64.372902,89.211365 
	C61.986275,88.613823 59.741547,87.449532 57.191406,86.287880 
z"/>
<path fill="#1CE5E5" opacity="1.000000" stroke="none" 
	d="
M128.603973,64.019867 
	C128.495834,64.607140 128.102631,65.572060 127.484222,65.748749 
	C114.854553,69.357185 102.090889,72.681541 88.848251,71.842545 
	C80.524368,71.315170 71.929276,70.685936 65.098709,64.290413 
	C82.468063,73.193718 100.526978,70.592827 118.623032,66.765923 
	C121.867752,66.079727 125.019417,64.953522 128.603973,64.019867 
z"/>
<path fill="#1FE1E0" opacity="1.000000" stroke="none" 
	d="
M161.991592,189.008926 
	C162.480301,188.957123 163.016571,188.747375 163.450333,188.878021 
	C167.752731,190.173721 172.038177,191.525742 175.615906,192.639954 
	C173.854477,195.039230 171.512177,198.229736 168.813705,201.877991 
	C168.248398,202.584854 168.160294,202.871246 168.193222,203.194916 
	C168.193222,203.194916 167.993927,203.020813 167.801346,203.054688 
	C167.412796,203.052780 167.216843,203.016998 166.982590,202.597168 
	C165.600189,199.160736 164.256058,196.108337 162.911942,193.055939 
	C162.911942,193.055939 162.982010,193.025955 162.853912,192.829407 
	C162.444443,192.442230 162.163055,192.251602 161.881683,192.060974 
	C161.881683,192.060974 161.961105,192.022919 161.952545,191.675659 
	C161.959869,190.555252 161.975723,189.782089 161.991592,189.008926 
z"/>
<path fill="#25C3C4" opacity="1.000000" stroke="none" 
	d="
M137.648193,199.548401 
	C129.769104,203.672607 121.047539,202.074509 112.430511,201.591919 
	C110.817101,201.501572 109.234535,200.860474 107.303299,200.283142 
	C114.579659,200.068527 122.191010,200.088852 129.800934,199.994644 
	C132.284546,199.963882 134.764435,199.634827 137.648193,199.548401 
z"/>
<path fill="#29CCC9" opacity="1.000000" stroke="none" 
	d="
M162.951233,193.456131 
	C164.256058,196.108337 165.600189,199.160736 166.970245,202.608063 
	C166.996201,203.003006 166.971710,203.024780 166.700409,203.013535 
	C166.067337,203.003937 165.705582,203.005569 165.343826,203.007202 
	C164.695816,201.698471 163.851273,199.211777 163.433243,199.281509 
	C161.449127,199.612534 159.581268,200.640442 157.270798,201.584045 
	C156.796341,200.341141 156.047089,198.378387 155.523758,197.007477 
	C158.062393,195.936111 160.526459,194.896210 162.951233,193.456131 
z"/>
<path fill="#25C3C4" opacity="1.000000" stroke="none" 
	d="
M110.028450,204.517578 
	C120.942284,204.340179 132.158798,204.418564 143.720917,204.674576 
	C132.816345,206.992813 121.571198,206.967834 110.028450,204.517578 
z"/>
<path fill="#1CE5E5" opacity="1.000000" stroke="none" 
	d="
M60.116833,56.543480 
	C59.187180,55.621952 58.288670,54.272640 57.287300,52.768864 
	C55.419838,54.463898 53.535244,56.174477 51.309322,57.925934 
	C53.886784,54.151772 56.805576,50.336735 59.724369,46.521698 
	C60.081520,46.743755 60.438675,46.965813 60.795830,47.187870 
	C60.579876,50.163815 60.363922,53.139755 60.116833,56.543480 
z"/>
<path fill="#25DDDC" opacity="1.000000" stroke="none" 
	d="
M89.545120,24.859694 
	C88.175224,25.853853 86.408234,26.805489 83.571220,28.333391 
	C87.275154,28.853170 89.852417,29.214844 92.700180,29.873629 
	C88.996437,30.170742 85.022202,30.170742 81.047974,30.170742 
	C80.925827,29.323599 80.803673,28.476458 80.681526,27.629314 
	C83.503685,26.691931 86.325851,25.754549 89.545120,24.859694 
z"/>
<path fill="#1CE5E5" opacity="1.000000" stroke="none" 
	d="
M48.702034,61.198135 
	C48.567398,66.179131 48.144444,71.364723 47.581764,76.982971 
	C43.872078,71.841721 45.737446,66.597618 48.702034,61.198135 
z"/>
<path fill="#23E0DC" opacity="1.000000" stroke="none" 
	d="
M104.412949,13.930198 
	C104.008461,13.028235 103.840302,11.900310 103.672142,10.772384 
	C103.270828,10.451183 102.869522,10.129983 102.468208,9.808783 
	C101.037453,11.681459 99.606697,13.554136 97.833527,15.405119 
	C98.759514,13.455011 99.803802,11.311386 101.375732,9.674449 
	C102.409836,8.597570 104.204697,8.251232 105.658890,7.577758 
	C105.949295,7.968343 106.239708,8.358928 106.530113,8.749513 
	C105.903160,10.401087 105.276215,12.052660 104.412949,13.930198 
z"/>
<path fill="#1CE5E5" opacity="1.000000" stroke="none" 
	d="
M179.402557,56.932358 
	C180.204407,52.276833 181.305145,47.446636 182.618423,42.293579 
	C184.935471,47.565884 182.481796,52.196354 179.402557,56.932358 
z"/>
<path fill="#20C5C3" opacity="1.000000" stroke="none" 
	d="
M34.224609,110.094040 
	C34.212833,110.511017 34.201057,110.928001 34.138348,112.110458 
	C34.003956,115.001526 33.920498,117.127129 33.837044,119.252724 
	C33.868767,113.059860 33.885433,106.866631 34.034065,100.676575 
	C34.037220,100.545036 35.560448,100.449997 36.126713,100.842026 
	C35.327446,104.262093 34.776028,107.178070 34.224609,110.094040 
z"/>
<path fill="#24D9D7" opacity="1.000000" stroke="none" 
	d="
M218.699829,138.384125 
	C218.722977,136.335510 219.006668,133.976410 219.203354,131.610077 
	C219.344971,129.906403 219.370575,128.193069 219.186066,126.204361 
	C219.258865,125.271004 219.593521,124.617325 219.928177,123.963646 
	C220.518585,124.096832 221.108994,124.230019 221.699417,124.363205 
	C220.773987,128.932327 219.848572,133.501434 218.699829,138.384125 
z"/>
<path fill="#25C3C4" opacity="1.000000" stroke="none" 
	d="
M146.393539,204.657043 
	C147.152176,204.044525 148.243591,203.245544 149.439514,203.032089 
	C152.382690,202.506821 153.283600,200.997253 152.311798,197.861542 
	C156.149231,202.134171 155.886642,202.911499 150.106689,204.095444 
	C148.998444,204.322433 147.884933,204.523788 146.393539,204.657043 
z"/>
<path fill="#1DE2E2" opacity="1.000000" stroke="none" 
	d="
M34.522812,109.940659 
	C34.776028,107.178070 35.327446,104.262093 36.193687,101.203156 
	C36.987274,102.435539 37.466038,103.810890 38.089287,105.538322 
	C37.096188,107.189362 35.958603,108.488319 34.522812,109.940659 
z"/>
<path fill="#1CE5E5" opacity="1.000000" stroke="none" 
	d="
M161.625229,29.793877 
	C165.035233,32.106590 165.089020,38.779194 161.259552,42.863739 
	C162.418365,38.760624 164.279816,34.608944 161.625229,29.793877 
z"/>
<path fill="#24D9D7" opacity="1.000000" stroke="none" 
	d="
M211.621368,151.219391 
	C213.434357,147.376709 215.552826,143.391571 217.976685,139.230652 
	C216.163651,143.062225 214.045258,147.069580 211.621368,151.219391 
z"/>
<path fill="#23E0DC" opacity="1.000000" stroke="none" 
	d="
M112.561150,21.972942 
	C109.766846,22.548935 106.560631,23.310230 103.311066,23.627388 
	C102.837822,23.673576 102.157494,21.597980 101.822838,20.261005 
	C103.172112,20.955891 104.201035,22.562429 105.386215,22.687437 
	C107.587776,22.919640 109.880508,22.287521 112.561150,21.972942 
z"/>
<path fill="#1CE5E5" opacity="1.000000" stroke="none" 
	d="
M47.581451,77.835030 
	C49.614517,79.479172 51.743122,81.446983 53.890160,83.764328 
	C51.831394,82.128807 49.754196,80.143753 47.581451,77.835030 
z"/>
<path fill="#1CE5E5" opacity="1.000000" stroke="none" 
	d="
M147.356964,79.980652 
	C149.448334,78.672592 151.904648,77.359283 154.753387,76.086365 
	C152.671188,77.409637 150.196548,78.692528 147.356964,79.980652 
z"/>
<path fill="#23E0DC" opacity="1.000000" stroke="none" 
	d="
M117.221970,21.646736 
	C116.466164,21.283424 115.949783,20.654305 115.119812,19.937393 
	C115.891754,18.733734 116.977295,17.617865 118.062843,16.501995 
	C118.515411,16.835072 118.967979,17.168146 119.420547,17.501223 
	C118.767494,18.794458 118.114449,20.087694 117.221970,21.646736 
z"/>
<path fill="#25C3C4" opacity="1.000000" stroke="none" 
	d="
M150.691299,197.389954 
	C147.890839,198.170914 144.769043,198.873642 141.318787,199.397919 
	C144.116867,198.583572 147.243423,197.947647 150.691299,197.389954 
z"/>
<path fill="#1CE5E5" opacity="1.000000" stroke="none" 
	d="
M182.155426,39.596809 
	C180.506042,38.065231 178.827896,36.179592 177.156509,33.919411 
	C178.817749,35.444164 180.472214,37.343456 182.155426,39.596809 
z"/>
<path fill="#1DE2E2" opacity="1.000000" stroke="none" 
	d="
M33.807789,119.447433 
	C33.920498,117.127129 34.003956,115.001526 34.129677,112.423187 
	C34.638817,115.773796 35.105690,119.577141 35.342251,123.686516 
	C35.111935,123.992546 35.059174,124.054161 35.055058,123.674408 
	C34.683022,122.195763 34.315102,121.096886 33.947182,119.998001 
	C33.947182,119.998001 33.778538,119.642151 33.807789,119.447433 
z"/>
<path fill="#21CDCB" opacity="1.000000" stroke="none" 
	d="
M106.690887,41.526379 
	C107.374313,40.343323 108.230759,39.456188 109.094948,38.233189 
	C110.047066,39.015285 110.991455,40.133247 112.764839,42.232578 
	C110.105537,42.047684 108.484718,41.934994 106.690887,41.526379 
z"/>
<path fill="#1CE5E5" opacity="1.000000" stroke="none" 
	d="
M159.347412,73.999191 
	C160.804230,72.688858 162.605576,71.374908 164.775330,70.096558 
	C163.326462,71.419952 161.509201,72.707756 159.347412,73.999191 
z"/>
<path fill="#1CE5E5" opacity="1.000000" stroke="none" 
	d="
M165.446960,70.101593 
	C166.787903,68.751366 168.461349,67.345428 170.491394,65.930084 
	C169.158463,67.295746 167.468979,68.670822 165.446960,70.101593 
z"/>
<path fill="#23E0DC" opacity="1.000000" stroke="none" 
	d="
M110.485435,26.230160 
	C111.798813,25.382603 113.481125,24.564461 115.592018,23.537886 
	C115.696579,24.874762 115.765297,25.753410 115.759781,26.979149 
	C114.075150,26.970686 112.464760,26.615131 110.485435,26.230160 
z"/>
<path fill="#1CE5E5" opacity="1.000000" stroke="none" 
	d="
M136.625305,60.954216 
	C134.597534,62.007095 132.197510,63.033028 129.406784,64.029755 
	C131.428406,62.976124 133.840729,61.951694 136.625305,60.954216 
z"/>
<path fill="#1CE5E5" opacity="1.000000" stroke="none" 
	d="
M160.631378,43.050560 
	C159.805283,44.546093 158.692963,46.199894 157.228210,47.872410 
	C158.032257,46.330360 159.188690,44.769592 160.631378,43.050560 
z"/>
<path fill="#29CCC9" opacity="1.000000" stroke="none" 
	d="
M161.843109,188.890717 
	C161.975723,189.782089 161.959869,190.555252 161.932709,191.714981 
	C161.260956,191.316452 160.600494,190.531372 159.940018,189.746277 
	C160.524887,189.421692 161.109756,189.097107 161.843109,188.890717 
z"/>
<path fill="#29CCC9" opacity="1.000000" stroke="none" 
	d="
M167.008545,202.992096 
	C167.216843,203.016998 167.412796,203.052780 167.903458,203.137512 
	C167.356125,204.410294 166.514084,205.634109 165.672058,206.857925 
	C165.424744,206.394745 165.177429,205.931564 165.321915,205.155334 
	C166.133041,204.236450 166.552383,203.630615 166.971710,203.024780 
	C166.971710,203.024780 166.996201,203.003006 167.008545,202.992096 
z"/>
<path fill="#23E0DC" opacity="1.000000" stroke="none" 
	d="
M115.857773,27.611984 
	C116.524178,27.226498 117.341347,27.109510 118.572159,26.984753 
	C119.149910,27.578711 119.314018,28.180437 119.557610,29.073542 
	C118.198250,28.616577 117.103394,28.248529 115.857773,27.611984 
z"/>
<path fill="#1CE5E5" opacity="1.000000" stroke="none" 
	d="
M149.510529,53.815025 
	C148.448624,54.823345 147.061584,55.914753 145.314362,56.979301 
	C146.364594,55.934338 147.774979,54.916225 149.510529,53.815025 
z"/>
<path fill="#23E0DC" opacity="1.000000" stroke="none" 
	d="
M102.303879,19.827015 
	C102.562057,18.216900 103.070923,16.355167 103.886101,14.303103 
	C103.646461,15.933646 103.100510,17.754520 102.303879,19.827015 
z"/>
<path fill="#1CE5E5" opacity="1.000000" stroke="none" 
	d="
M142.356033,82.057983 
	C143.420990,81.335014 144.836105,80.637466 146.618256,79.964355 
	C145.558929,80.686989 144.132568,81.385193 142.356033,82.057983 
z"/>
<path fill="#1DE2E2" opacity="1.000000" stroke="none" 
	d="
M132.907593,125.718765 
	C131.985764,125.238243 131.007401,124.444534 130.044189,123.289162 
	C130.989914,123.753525 131.920486,124.579552 132.907593,125.718765 
z"/>
<path fill="#1CE5E5" opacity="1.000000" stroke="none" 
	d="
M61.996338,60.630173 
	C61.385643,59.852238 60.685966,58.757084 60.026062,57.286148 
	C60.679676,58.044563 61.293514,59.178761 61.996338,60.630173 
z"/>
<path fill="#24D9D7" opacity="1.000000" stroke="none" 
	d="
M202.306839,159.961166 
	C202.891129,159.119781 203.793839,158.238052 205.037964,157.334137 
	C204.461349,158.181595 203.543304,159.051208 202.306839,159.961166 
z"/>
<path fill="#1CE5E5" opacity="1.000000" stroke="none" 
	d="
M177.270752,59.884037 
	C177.461380,59.053715 177.951447,58.116207 178.781860,57.131866 
	C178.604874,57.982307 178.087509,58.879581 177.270752,59.884037 
z"/>
<path fill="#1CE5E5" opacity="1.000000" stroke="none" 
	d="
M54.006489,84.405472 
	C54.873344,84.522369 55.851353,84.944412 56.907444,85.703140 
	C56.029568,85.596756 55.073608,85.153687 54.006489,84.405472 
z"/>
<path fill="#23E0DC" opacity="1.000000" stroke="none" 
	d="
M104.844360,26.716326 
	C106.360535,26.490656 107.876701,26.264984 109.780762,26.112316 
	C109.309914,26.456081 108.451172,26.726847 106.902222,26.937218 
	C105.756126,26.823324 105.300240,26.769825 104.844360,26.716326 
z"/>
<path fill="#1DE2E2" opacity="1.000000" stroke="none" 
	d="
M37.645638,128.789581 
	C38.361824,129.107697 39.167572,129.716461 39.954079,130.692596 
	C39.201626,130.400070 38.468410,129.740158 37.645638,128.789581 
z"/>
<path fill="#24D9D7" opacity="1.000000" stroke="none" 
	d="
M199.372833,162.084656 
	C199.823059,161.426956 200.585739,160.720596 201.677246,160.002502 
	C201.232483,160.672531 200.458893,161.354263 199.372833,162.084656 
z"/>
<path fill="#24D9D7" opacity="1.000000" stroke="none" 
	d="
M216.663177,129.064407 
	C216.428680,129.839569 215.906387,130.745392 215.064270,131.751190 
	C215.288086,130.965805 215.831726,130.080444 216.663177,129.064407 
z"/>
<path fill="#24D9D7" opacity="1.000000" stroke="none" 
	d="
M196.364609,164.088211 
	C196.844284,163.438263 197.646637,162.764130 198.781265,162.092407 
	C198.304794,162.751221 197.496033,163.407623 196.364609,164.088211 
z"/>
<path fill="#23E0DC" opacity="1.000000" stroke="none" 
	d="
M93.650070,21.053822 
	C93.427071,21.836508 92.919327,22.762426 92.097473,23.807817 
	C92.310684,23.017212 92.838005,22.107132 93.650070,21.053822 
z"/>
<path fill="#24D9D7" opacity="1.000000" stroke="none" 
	d="
M218.658615,126.058731 
	C218.466675,126.837341 217.995468,127.768684 217.224319,128.838013 
	C217.409363,128.054474 217.894348,127.132973 218.658615,126.058731 
z"/>
<path fill="#1DE2E2" opacity="1.000000" stroke="none" 
	d="
M35.683807,125.431618 
	C36.327957,125.966927 36.995739,126.825745 37.562553,128.032669 
	C36.876873,127.505569 36.292156,126.630348 35.683807,125.431618 
z"/>
<path fill="#24D9D7" opacity="1.000000" stroke="none" 
	d="
M193.294464,165.954056 
	C193.798325,165.345306 194.619141,164.702713 195.768173,164.069672 
	C195.268066,164.692886 194.439728,165.306549 193.294464,165.954056 
z"/>
<path fill="#20C5C3" opacity="1.000000" stroke="none" 
	d="
M33.896584,120.355392 
	C34.315102,121.096886 34.683022,122.195763 35.019188,123.655472 
	C34.606949,122.915131 34.226463,121.813957 33.896584,120.355392 
z"/>
<path fill="#1FE1E0" opacity="1.000000" stroke="none" 
	d="
M166.700409,203.013550 
	C166.552383,203.630615 166.133041,204.236450 165.419266,204.893143 
	C165.118561,204.505203 165.112289,204.066391 165.224915,203.317398 
	C165.705582,203.005569 166.067337,203.003937 166.700409,203.013550 
z"/>
<path fill="#1CE5E5" opacity="1.000000" stroke="none" 
	d="
M50.684975,58.116882 
	C50.499802,58.884140 50.034653,59.794922 49.280144,60.849152 
	C49.462189,60.081871 49.933598,59.171139 50.684975,58.116882 
z"/>
<path fill="#21CDCB" opacity="1.000000" stroke="none" 
	d="
M104.555367,26.829876 
	C105.300240,26.769825 105.756126,26.823324 106.553268,26.918209 
	C105.874313,27.364925 104.854103,27.770256 103.514290,28.266655 
	C103.551918,27.886290 103.909149,27.414860 104.555367,26.829876 
z"/>
<path fill="#1CE5E5" opacity="1.000000" stroke="none" 
	d="
M153.549530,50.827637 
	C153.103668,51.478752 152.351288,52.203651 151.263397,52.934631 
	C151.699600,52.260944 152.471298,51.581181 153.549530,50.827637 
z"/>
<path fill="#24D9D7" opacity="1.000000" stroke="none" 
	d="
M208.275269,154.916077 
	C208.448837,154.357010 208.910446,153.716568 209.686676,153.034607 
	C209.521973,153.606964 209.042648,154.220825 208.275269,154.916077 
z"/>
<path fill="#25DDDC" opacity="1.000000" stroke="none" 
	d="
M92.964966,30.385017 
	C93.536316,30.521881 94.211380,30.946465 94.945999,31.689375 
	C94.359932,31.562714 93.714310,31.117727 92.964966,30.385017 
z"/>
<path fill="#1CE5E5" opacity="1.000000" stroke="none" 
	d="
M171.232941,65.834694 
	C171.422012,65.273170 171.904053,64.676216 172.692535,64.045303 
	C172.507950,64.607315 172.016937,65.203285 171.232941,65.834694 
z"/>
<path fill="#23E0DC" opacity="1.000000" stroke="none" 
	d="
M97.154999,15.791076 
	C97.065826,16.291613 96.778969,16.998878 96.206207,17.838371 
	C96.265976,17.313000 96.611649,16.655403 97.154999,15.791076 
z"/>
<path fill="#1CE5E5" opacity="1.000000" stroke="none" 
	d="
M140.703491,58.967354 
	C140.535248,59.320972 140.070999,59.657852 139.310211,59.997391 
	C139.478287,59.650234 139.942886,59.300423 140.703491,58.967354 
z"/>
<path fill="#1CE5E5" opacity="1.000000" stroke="none" 
	d="
M138.697281,59.990311 
	C138.519745,60.336166 138.046692,60.665314 137.273758,60.991196 
	C137.449829,60.649818 137.925812,60.311710 138.697281,59.990311 
z"/>
<path fill="#24D9D7" opacity="1.000000" stroke="none" 
	d="
M210.277054,152.913727 
	C210.258942,152.480652 210.524796,151.959976 211.088318,151.363998 
	C211.111008,151.801163 210.836029,152.313644 210.277054,152.913727 
z"/>
<path fill="#23E0DC" opacity="1.000000" stroke="none" 
	d="
M95.669266,18.061695 
	C95.733589,18.486574 95.519073,19.043072 95.032669,19.747639 
	C94.970665,19.328243 95.180542,18.760778 95.669266,18.061695 
z"/>
<path fill="#25DDDC" opacity="1.000000" stroke="none" 
	d="
M97.961868,34.372910 
	C98.390160,34.355000 98.919106,34.611855 99.503479,35.171982 
	C99.060112,35.199398 98.561317,34.923538 97.961868,34.372910 
z"/>
<path fill="#21CDCB" opacity="1.000000" stroke="none" 
	d="
M106.368309,34.163048 
	C106.021240,34.085545 105.583183,33.740250 105.124458,33.085083 
	C105.494965,33.148563 105.886139,33.521908 106.368309,34.163048 
z"/>
<path fill="#21CDCB" opacity="1.000000" stroke="none" 
	d="
M102.871109,38.354836 
	C103.301743,38.345165 103.850616,38.605705 104.443680,39.181427 
	C103.988365,39.206081 103.488861,38.915562 102.871109,38.354836 
z"/>
<path fill="#21CDCB" opacity="1.000000" stroke="none" 
	d="
M104.646439,39.797943 
	C105.019066,39.789707 105.484001,40.027802 106.002930,40.547218 
	C105.617523,40.567116 105.178131,40.305698 104.646439,39.797943 
z"/>
<path fill="#24D9D7" opacity="1.000000" stroke="none" 
	d="
M206.765442,156.377502 
	C206.800735,156.014404 207.093170,155.539917 207.691589,155.026245 
	C207.672562,155.413406 207.347565,155.839767 206.765442,156.377502 
z"/>
<path fill="#1DE2E2" opacity="1.000000" stroke="none" 
	d="
M41.011734,108.665993 
	C40.546204,108.743385 39.974041,108.511131 39.254639,107.996284 
	C39.706635,107.927910 40.305870,108.142128 41.011734,108.665993 
z"/>
<path fill="#1CE5E5" opacity="1.000000" stroke="none" 
	d="
M142.694824,57.951111 
	C142.523438,58.304893 142.052734,58.645180 141.280884,58.988014 
	C141.451645,58.639576 141.923569,58.288597 142.694824,57.951111 
z"/>
<path fill="#1CE5E5" opacity="1.000000" stroke="none" 
	d="
M144.680634,56.955254 
	C144.507187,57.284653 144.036209,57.627934 143.262619,57.974197 
	C143.434372,57.641167 143.908752,57.305149 144.680634,56.955254 
z"/>
<path fill="#1CE5E5" opacity="1.000000" stroke="none" 
	d="
M157.319427,75.065781 
	C157.482727,74.725571 157.941666,74.371185 158.701294,74.009918 
	C158.539673,74.352562 158.077362,74.702087 157.319427,75.065781 
z"/>
<path fill="#1CE5E5" opacity="1.000000" stroke="none" 
	d="
M155.375763,76.152611 
	C155.529327,75.808006 155.988922,75.437302 156.757843,75.061951 
	C156.605362,75.413712 156.143555,75.770119 155.375763,76.152611 
z"/>
<path fill="#25DDDC" opacity="1.000000" stroke="none" 
	d="
M95.142677,32.242180 
	C95.515182,32.257141 96.043785,32.516514 96.668182,33.069935 
	C96.275574,33.071522 95.787170,32.779053 95.142677,32.242180 
z"/>
<path fill="#24D9D7" opacity="1.000000" stroke="none" 
	d="
M214.565231,131.833710 
	C214.632584,132.060623 214.428299,132.373184 213.947937,132.764328 
	C213.879120,132.535065 214.086365,132.227234 214.565231,131.833710 
z"/>
<path fill="#0AF7F7" opacity="1.000000" stroke="none" 
	d="
M54.239357,160.136414 
	C54.047226,160.426559 53.838856,160.765915 53.630478,161.105270 
	C53.674362,160.880356 53.718250,160.655441 54.022808,160.274323 
	C54.283478,160.118134 54.223122,160.185638 54.239357,160.136414 
z"/>
<path fill="#21CDCB" opacity="1.000000" stroke="none" 
	d="
M107.332443,35.400768 
	C106.970482,35.646854 106.714195,35.477055 106.601067,34.873581 
	C106.945938,34.688492 107.177238,34.870148 107.332443,35.400768 
z"/>
<path fill="#23E0DC" opacity="1.000000" stroke="none" 
	d="
M114.610168,19.897093 
	C114.713135,20.099791 114.567596,20.414011 114.192696,20.861778 
	C114.096115,20.666424 114.228882,20.337521 114.610168,19.897093 
z"/>
<path fill="#29CCC9" opacity="1.000000" stroke="none" 
	d="
M161.967926,192.315948 
	C162.163055,192.251602 162.444443,192.442230 162.840561,192.865082 
	C162.654922,192.921860 162.354538,192.746384 161.967926,192.315948 
z"/>
<path fill="#23E0DC" opacity="1.000000" stroke="none" 
	d="
M94.589020,19.873493 
	C94.695198,20.091988 94.531929,20.400877 94.134438,20.839325 
	C94.039993,20.633886 94.179779,20.298889 94.589020,19.873493 
z"/>
<path fill="#25DDDC" opacity="1.000000" stroke="none" 
	d="
M99.682381,35.747887 
	C99.903564,35.639271 100.201828,35.760792 100.552155,36.131844 
	C100.249725,36.399624 99.968140,36.265175 99.682381,35.747887 
z"/>
<path fill="#29CCC9" opacity="1.000000" stroke="none" 
	d="
M168.391296,203.064148 
	C168.160294,202.871246 168.248398,202.584854 168.634857,202.190735 
	C168.897858,202.381775 168.823593,202.677658 168.391296,203.064148 
z"/>
<path fill="#25DDDC" opacity="1.000000" stroke="none" 
	d="
M96.794449,33.538918 
	C97.008659,33.418045 97.338020,33.550850 97.804680,33.920956 
	C97.597855,34.036369 97.253731,33.914478 96.794449,33.538918 
z"/>
<path fill="#1CE5E5" opacity="1.000000" stroke="none" 
	d="
M176.098312,32.689369 
	C175.889572,32.793137 175.578125,32.636936 175.128174,32.253555 
	C175.324982,32.160717 175.660309,32.295059 176.098312,32.689369 
z"/>
<path fill="#1CE5E5" opacity="1.000000" stroke="none" 
	d="
M173.270966,63.954918 
	C173.098068,63.666573 173.284470,63.403591 173.800125,63.120789 
	C173.862549,63.322857 173.696182,63.615963 173.270966,63.954918 
z"/>
<path fill="#1CE5E5" opacity="1.000000" stroke="none" 
	d="
M156.655746,47.930119 
	C156.731720,48.150307 156.540726,48.438557 156.103302,48.824562 
	C156.034164,48.614269 156.211472,48.306225 156.655746,47.930119 
z"/>
<path fill="#1CE5E5" opacity="1.000000" stroke="none" 
	d="
M154.630585,49.889900 
	C154.695038,50.113087 154.483887,50.397701 154.015106,50.768188 
	C153.956650,50.553146 154.155823,50.252235 154.630585,49.889900 
z"/>
<path fill="#21CDCB" opacity="1.000000" stroke="none" 
	d="
M104.690872,31.788044 
	C104.370689,31.967196 104.155563,31.801332 104.001938,31.308426 
	C104.316597,31.094751 104.560753,31.248636 104.690872,31.788044 
z"/>
<path fill="#1DE2E2" opacity="1.000000" stroke="none" 
	d="
M43.058285,110.666229 
	C42.829121,110.748878 42.530300,110.554810 42.129379,110.107407 
	C42.347729,110.032547 42.668179,110.211021 43.058285,110.666229 
z"/>
<path fill="#25DDDC" opacity="1.000000" stroke="none" 
	d="
M90.737717,24.410189 
	C90.824715,24.705111 90.614021,24.875465 90.105247,24.926525 
	C90.020653,24.638395 90.231606,24.464527 90.737717,24.410189 
z"/>
<path fill="#21CDCB" opacity="1.000000" stroke="none" 
	d="
M109.081772,37.647121 
	C108.842293,37.716286 108.565620,37.509220 108.221886,37.045578 
	C108.451408,36.982967 108.747993,37.176933 109.081772,37.647121 
z"/>
<path fill="#1CE5E5" opacity="1.000000" stroke="none" 
	d="
M150.686890,52.939220 
	C150.734482,53.175945 150.497742,53.434734 150.001358,53.760132 
	C149.961990,53.538254 150.182266,53.249771 150.686890,52.939220 
z"/>
<path fill="#21CDCB" opacity="1.000000" stroke="none" 
	d="
M108.176376,36.584389 
	C107.939255,36.632072 107.665115,36.418674 107.382645,35.933403 
	C107.629326,35.882126 107.884346,36.102718 108.176376,36.584389 
z"/>
<path fill="#1CE5E5" opacity="1.000000" stroke="none" 
	d="
M62.954269,61.745262 
	C62.729637,61.806046 62.474545,61.593616 62.129353,61.145172 
	C62.334106,61.096786 62.628956,61.284420 62.954269,61.745262 
z"/>
<path fill="#1CE5E5" opacity="1.000000" stroke="none" 
	d="
M65.000328,63.694687 
	C64.720474,63.895344 64.441299,63.727982 64.102501,63.241371 
	C64.300827,63.159431 64.620193,63.294273 65.000328,63.694687 
z"/>
<path fill="#1CE5E5" opacity="1.000000" stroke="none" 
	d="
M174.288406,62.974419 
	C174.112411,62.695080 174.293884,62.427860 174.798462,62.126221 
	C174.864456,62.323112 174.705902,62.621357 174.288406,62.974419 
z"/>
<path fill="#1CE5E5" opacity="1.000000" stroke="none" 
	d="
M175.286011,61.961918 
	C175.207092,61.749386 175.388657,61.476574 175.799103,61.102119 
	C175.867508,61.300861 175.707001,61.601250 175.286011,61.961918 
z"/>
<path fill="#1DE2E2" opacity="1.000000" stroke="none" 
	d="
M39.967201,131.320450 
	C40.212208,131.226974 40.496361,131.411819 40.869415,131.841766 
	C40.640991,131.924194 40.323669,131.761475 39.967201,131.320450 
z"/>
<path fill="#1CE5E5" opacity="1.000000" stroke="none" 
	d="
M155.650787,48.912300 
	C155.725250,49.141819 155.522583,49.423016 155.074554,49.804024 
	C155.010681,49.590553 155.192154,49.277267 155.650787,48.912300 
z"/>
<path fill="#25DDDC" opacity="1.000000" stroke="none" 
	d="
M100.736412,36.660469 
	C100.959793,36.572945 101.297058,36.749954 101.735260,37.205486 
	C101.507568,37.297676 101.178932,37.111343 100.736412,36.660469 
z"/>
<path fill="#24D9D7" opacity="1.000000" stroke="none" 
	d="
M205.574814,157.318604 
	C205.520187,157.081009 205.708710,156.801285 206.165466,156.529053 
	C206.340256,156.876175 206.135010,157.122833 205.574814,157.318604 
z"/>
</svg>